<?xml version="1.0" encoding="UTF-8"?>
<svg xmlns="http://www.w3.org/2000/svg" id="Layer_1" viewBox="0 0 100.11 24.11"><defs><style>.cls-1{fill:#293ba8;stroke-width:0px;}</style></defs><path class="cls-1" d="m21.11,6.56h-4.27c-1.15-2.2-3.21-3.29-5.79-3.29-4.29,0-7.41,3.07-7.41,7.87s3.11,7.9,7.41,7.9c3.92,0,6.38-2.39,6.91-6.05h-8.12v-2.86h11.92v2.79c-.65,5.05-4.89,9.35-10.71,9.35S0,17.69,0,11.13,4.95,0,11.05,0c4.51,0,8.4,2.29,10.06,6.56Z"/><path class="cls-1" d="m31.84,22.37c-4.92,0-8.56-3.52-8.56-8.94s3.49-8.91,8.56-8.91,8.34,3.42,8.34,8.5c0,.59-.04,1.18-.13,1.76h-13.11c.25,2.86,2.27,4.58,4.89,4.58,2.18,0,3.39-1.07,4.05-2.42h3.83c-.96,3.02-3.67,5.43-7.87,5.43Zm-4.86-10.48h9.49c-.06-2.67-2.15-4.36-4.79-4.36-2.4,0-4.33,1.63-4.7,4.36h0Z"/><path class="cls-1" d="m54.49,12.42c0-3.17-1.71-4.8-4.29-4.8s-4.33,1.63-4.33,4.8v9.66h-3.55V4.8h3.55v1.98c1.15-1.41,3.05-2.26,5.1-2.26,4.02,0,7.03,2.54,7.03,7.37v10.2h-3.52v-9.66Z"/><path class="cls-1" d="m68.2,22.37c-4.92,0-8.56-3.52-8.56-8.94s3.49-8.91,8.56-8.91,8.34,3.42,8.34,8.5c0,.59-.04,1.17-.12,1.76h-13.11c.25,2.86,2.27,4.58,4.89,4.58,2.18,0,3.39-1.07,4.05-2.42h3.83c-.96,3.02-3.67,5.43-7.87,5.43Zm-4.86-10.48h9.49c-.06-2.67-2.15-4.36-4.79-4.36-2.4,0-4.32,1.63-4.7,4.36h0Z"/><path class="cls-1" d="m97.64,24.11l-3.58-5.63-3.45,5.63h-2.35l4.71-7.36-4.65-7.36h2.48l3.53,5.55,3.43-5.55h2.32l-4.65,7.28,4.7,7.44h-2.48Z"/><path class="cls-1" d="m85.23,1.98c4.85,0,7.66,2.4,8.88,5.87.3.86.64,1.93.85,2.72l1.45-2.25c-1.1-4.74-5.02-8.16-11.18-8.16h-6.44v21.93h6.44c.8,0,1.61-.05,2.41-.17l1.42-2.21c-1.24.39-2.54.57-3.84.56h-4.26V1.98h4.26Z"/></svg>