<?xml version="1.0" encoding="utf-8"?>
<!-- Generator: Adobe Illustrator 18.1.1, SVG Export Plug-In . SVG Version: 6.00 Build 0)  -->
<svg version="1.1" id="Layer_1" xmlns="http://www.w3.org/2000/svg" xmlns:xlink="http://www.w3.org/1999/xlink" x="0px" y="0px"
	 viewBox="-353 251 252 59" enable-background="new -353 251 252 59" xml:space="preserve">
<g>
	<path fill="#767ED2" d="M-255.2,299.6h-29.5v-16.7h26.4c1,0,1.9-0.8,1.9-1.9v-4.6c0-1-0.8-1.9-1.9-1.9h-26.4v-14.4h29.3v0
		c1,0,1.9-0.8,1.9-1.9v-4.6c0-1-0.8-1.9-1.9-1.9h-36.2c-1,0-1.9,0.8-1.9,1.9V306c0,1,0.8,1.9,1.9,1.9h36.5c1,0,1.9-0.8,1.9-1.9v-4.6
		C-253.4,300.4-254.2,299.6-255.2,299.6z"/>
	<path fill="#767ED2" d="M-177.6,289.9c10.7,0,19.5-8.7,19.5-19.5c0-10.7-8.7-19.5-19.5-19.5c-10.7,0-19.5,8.7-19.5,19.5
		C-197.1,281.2-188.4,289.9-177.6,289.9z M-177.6,259.4c6.1,0,11.1,5,11.1,11.1c0,6.1-5,11.1-11.1,11.1c-6.1,0-11.1-5-11.1-11.1
		C-188.8,264.3-183.8,259.4-177.6,259.4z"/>
	<path fill="#767ED2" d="M-307.7,251.7h-5.1c-1,0-1.9,0.8-1.9,1.9v20.9h-29.5v-20.4v-0.5c0-1-0.8-1.9-1.9-1.9h-5.1
		c-1,0-1.9,0.8-1.9,1.9l0,0.5h0V306c0,1,0.8,1.9,1.9,1.9h5.1c1,0,1.9-0.8,1.9-1.9v-23.2h29.5V306c0,1,0.8,1.9,1.9,1.9h5.1
		c1,0,1.9-0.8,1.9-1.9v-52.4C-305.8,252.6-306.7,251.7-307.7,251.7z"/>
	<path fill="#767ED2" d="M-102.9,251.7h-4.9c-1,0-1.9,0.8-1.9,1.9V294l-28.6-40.2c-1-1.4-1.6-2.1-3.8-2.1h-6c-1,0-1.9,0.8-1.9,1.9
		V306c0,1,0.8,1.9,1.9,1.9h5c1,0,1.9-0.8,1.9-1.9h0v-41.1l29,40.8c1,1.4,1.6,2.2,3.8,2.2h5.4c1,0,1.9-0.8,1.9-1.9v-52.4
		C-101,252.6-101.8,251.7-102.9,251.7z"/>
	<path fill="#767ED2" d="M-160.5,296.2c-0.7-0.9-1.6-1.1-2.7-0.3c-4.4,3.1-8.5,5.4-16.6,5.4c-9.4,0-17.1-6-25.4-11.8
		c-4.3-2.9-7.5-5-10.8-6.5c8.2-2,12.3-7.9,12.3-15c0-4.5-1.6-8.6-4.5-11.5c-3.1-3.1-7.5-4.8-12.7-4.8h-21c-1,0-1.9,0.8-1.9,1.9V306
		c0,1,0.8,1.9,1.9,1.9h5.1c1,0,1.9-0.8,1.9-1.9v-21.5c9.3,0,16.9,6,25.2,11.7c9.1,6.2,17.9,13.2,30,13.2c9.3,0,16.8-4,21.2-7.8
		c1-0.9,0.9-1.7,0.1-2.7C-159.2,297.9-159.6,297.3-160.5,296.2z M-235.1,260.1h13.7c2.9,0,5.2,0.8,6.8,2.3c1.4,1.4,2.1,3.3,2.1,5.6
		c0,6.6-4.9,8-9.1,8h-13.4V260.1L-235.1,260.1z"/>
</g>
</svg>
