<svg version="1.2" xmlns="http://www.w3.org/2000/svg" viewBox="0 0 1586 448" width="1586" height="448">
	<title>invite-svg</title>
	<style>
		.s0 { fill: #313230 } 
		.s1 { fill: #9cc96f } 
		.s2 { fill: #1d7ea0 } 
		.s3 { fill: #1ea493 } 
		.s4 { fill: #60b778 } 
	</style>
	<g id="Layer">
		<g id="Layer">
			<path id="Layer" fill-rule="evenodd" class="s0" d="m580.4 297h23.3v-146.6h-23.3zm485.7 0h23.3v-146.5h-23.3zm210-127.3v-19.3h-127.2v19.3h52.1v127.3h23v-127.3zm309.3 127.3v-19.3h-69.3v-46.3h55.8v-19.4h-55.8v-42.3h67.4v-19.3h-90.6v146.6zm-603.2-146.6l-39.6 102.1q-0.9 1.8-1.9 4.6c-0.3-1.9-0.6-2.8-1.5-4.6l-42.6-102.1h-25.1l62.2 146.6h12.2l61.3-146.6zm342.3 146.6l39.6-102.1q0.9-1.9 1.8-4.6c0.3 1.8 0.6 2.7 1.6 4.6l42.5 102.1h25.1l-62.1-146.6h-12.3l-61.3 146.6zm-504.8 0v-146.6h-21.1v114.6c-1.5-4-7.3-11.8-9.7-15.2l-78.9-99.4h-23.3v146.6h21.5v-115c1.2 3.3 5.8 8.9 7.6 11l82.8 104z"/>
		</g>
		<path id="Layer" fill-rule="evenodd" class="s1" d="m246.8 108.6l-3.3-5c-23.8-35.9-83.9-64.8-148.3-47.7l-5.8 1.5-3-11.5 5.7-1.5c61.3-16.3 130.6 6.3 161.3 52.6l3.3 5z"/>
		<path id="Layer" fill-rule="evenodd" class="s1" d="m276.8 119.1l-1.9-5.7c-13.2-41-63.3-85.1-129.9-86l-6-0.1 0.2-11.9 5.9 0.1c63.4 0.8 124.1 41.4 141.2 94.2l1.8 5.7z"/>
		<path id="Layer" fill-rule="evenodd" class="s1" d="m302.8 137.3l-0.2-6c-1.7-43.1-38-99.1-102-117.9l-5.7-1.7 3.4-11.5 5.7 1.7c60.8 18 108.3 73.4 110.5 128.9l0.2 6z"/>
		<path id="Layer" fill-rule="evenodd" class="s1" d="m334.6 164.5l-11.6-2.7 1.4-5.8c9.9-42-9.9-105.7-66.4-141.1l-5.1-3.2 6.4-10.1 5 3.2c53.7 33.7 84.5 99.9 71.7 153.9z"/>
		<path id="Layer" fill-rule="evenodd" class="s1" d="m346.3 196.6l-10.5-5.7 2.9-5.3c20.9-37.7 18.9-104.4-25.9-153.7l-4-4.4 8.8-8.1 4 4.5c42.7 46.9 54.5 118.9 27.5 167.5z"/>
		<path id="Layer" fill-rule="evenodd" class="s2" d="m348.8 230.7l-8.5-8.4 4.2-4.2c30.3-30.7 46.4-95.4 16.5-155.1l-2.6-5.3 10.6-5.4 2.7 5.4c28.4 56.7 20.3 129.2-18.7 168.8z"/>
		<path id="Layer" fill-rule="evenodd" class="s2" d="m342.1 264.2l-5.9-10.4 5.2-2.9c37.4-21.4 70.3-79.4 57.7-144.9l-1.2-5.8 11.7-2.3 1.2 5.8c12 62.3-15.3 130-63.5 157.5z"/>
		<path id="Layer" fill-rule="evenodd" class="s2" d="m326.6 294.6l-2.9-11.5 5.8-1.5c41.8-10.5 89.1-57.4 94.6-123.9l0.5-6 11.9 1-0.5 6c-5.2 63.2-49.7 121-103.6 134.5z"/>
		<path id="Layer" fill-rule="evenodd" class="s2" d="m312.4 319.9q-1.5 0-2.9 0l-6-0.2 0.3-11.9 6 0.2c42.9 1.2 101.3-31.3 124.5-93.8l2-5.6 11.2 4.2-2 5.5c-21.7 58.5-78.5 101.6-133.1 101.6z"/>
		<path id="Layer" fill-rule="evenodd" class="s2" d="m313.6 344.4c-11.5 0-22.8-1.6-33.4-4.9l-5.7-1.8 3.5-11.4 5.7 1.8c41.1 12.8 106-2.8 145.1-56.7l3.5-4.9 9.7 7.1-3.5 4.8c-29.8 41-79.2 66-124.9 66z"/>
		<path id="Layer" fill-rule="evenodd" class="s2" d="m315.2 369.1c-25 0-49-6.1-68.5-18.7l-5-3.3 6.5-10 5 3.3c36.1 23.4 102.7 25.9 155-15.4l4.7-3.8 7.4 9.4-4.7 3.7c-28.9 22.9-65.6 34.8-100.4 34.8z"/>
		<path id="Layer" fill-rule="evenodd" class="s3" d="m316 394.3c-40.8 0-80.3-15-104.5-42.5l-4-4.4 9-7.9 3.9 4.5c28.5 32.3 92 52.7 153.5 27l5.5-2.3 4.6 11-5.5 2.3c-19.9 8.3-41.4 12.3-62.5 12.3z"/>
		<path id="Layer" fill-rule="evenodd" class="s3" d="m310.8 419c-56.6 0-111.9-30.3-133.6-75.2l-2.6-5.4 10.8-5.2 2.6 5.4c18.7 38.8 74.3 75.6 140.4 67.4l5.9-0.7 1.5 11.8-5.9 0.8c-6.3 0.8-12.7 1.1-19.1 1.1z"/>
		<path id="Layer" fill-rule="evenodd" class="s3" d="m279.3 440.2l-5.9-0.9c-62.6-9.5-117.3-57.9-127-112.6l-1.1-5.8 11.8-2.1 1 5.8c7.6 42.5 51.2 92.9 117.1 102.9l5.9 0.9z"/>
		<path id="Layer" fill-rule="evenodd" class="s3" d="m218.7 447.2l-5.4-2.5c-57.8-26.1-97.4-87.4-92-142.7l0.6-5.9 11.8 1.1-0.5 6c-4.2 42.8 24.2 103.2 85 130.6l5.4 2.5z"/>
		<path id="Layer" fill-rule="evenodd" class="s3" d="m158.5 437.5l-4.6-3.8c-48.6-40.7-70.2-110.5-50.1-162.3l2.2-5.5 11.1 4.3-2.2 5.5c-15.5 40.2-4.5 106 46.7 148.8l4.5 3.8z"/>
		<path id="Layer" fill-rule="evenodd" class="s3" d="m103.1 411.9l-3.4-4.9c-35.8-52.3-37.8-125.3-4.5-169.7l3.6-4.8 9.5 7.1-3.6 4.8c-25.8 34.5-32.9 100.8 4.8 155.9l3.4 4.9z"/>
		<path id="Layer" fill-rule="evenodd" class="s4" d="m11.1 208.2l-10.5-5.6 2.8-5.3c30-55.9 93.9-91.2 148.6-82l5.9 1-1.9 11.7-5.9-0.9c-42.5-7.2-104.7 17-136.1 75.8z"/>
		<path id="Layer" fill-rule="evenodd" class="s4" d="m23 151.4l-8.6-8.3 4.1-4.3c43.9-45.8 114.9-62.5 165.2-38.9l5.4 2.6-5 10.8-5.4-2.6c-39-18.3-105.4-11.8-151.6 36.4z"/>
		<path id="Layer" fill-rule="evenodd" class="s4" d="m215.1 106.6l-4.5-3.9c-32.6-28.1-98.3-39.8-155.7-5.9l-5.1 3-6.1-10.3 5.1-3c54.6-32.2 127.5-29.1 169.6 7.2l4.5 3.9z"/>
		<path id="Layer" fill-rule="evenodd" class="s4" d="m56.6 372.4l-1.9-5.7c-20.4-60-2.6-130.8 41.4-164.7l4.7-3.6 7.3 9.4-4.7 3.7c-34.2 26.2-58.9 88.2-37.4 151.4l1.9 5.6z"/>
		<path id="Layer" fill-rule="evenodd" class="s4" d="m22.6 321.7l-0.4-5.9c-3.4-63.4 32.8-126.8 84.3-147.5l5.5-2.2 4.5 11.1-5.6 2.2c-39.9 16.1-80.4 69.1-76.8 135.7l0.4 6z"/>
		<path id="Layer" fill-rule="evenodd" class="s4" d="m15.1 266.3l-11.7-2.6 1.3-5.8c13.7-61.9 65.7-113.2 120.9-119.2l5.9-0.6 1.3 11.8-5.9 0.7c-42.8 4.7-96.1 44.8-110.6 109.9z"/>
	</g>
</svg>