<svg width="800" height="800" viewBox="0 0 800 800" fill="none" xmlns="http://www.w3.org/2000/svg">
<path d="M298 48C298 56.8366 305.163 64 314 64H681C689.837 64 697 71.1634 697 80V205C697 213.837 704.163 221 713 221H784C792.837 221 800 228.163 800 237V607C800 615.837 792.837 623 784 623H738C729.163 623 722 630.163 722 639V784C722 792.837 714.837 800 706 800H99C90.1635 800 83 792.837 83 784V487C83 478.163 75.8366 471 67 471H16C7.16344 471 0 463.837 0 455V16C0 7.16344 7.16344 0 16 0H282C290.837 0 298 7.16344 298 16V48Z" fill="#D9D9D9"/>
</svg>
