<svg width="600" height="800" viewBox="0 0 600 800" fill="none" xmlns="http://www.w3.org/2000/svg">
<path d="M280 51C280 59.8366 287.163 67 296 67H464C472.837 67 480 74.1634 480 83V335C480 343.837 487.163 351 496 351H584C592.837 351 600 358.163 600 367V682C600 690.837 592.837 698 584 698H530C521.163 698 514 705.163 514 714V784C514 792.837 506.837 800 498 800H138C129.163 800 122 792.837 122 784V580C122 571.163 114.837 564 106 564H16C7.16344 564 0 556.837 0 548V16C0 7.16344 7.16344 2.09383e-07 16 0H264C272.837 0 280 7.16344 280 16V51Z" fill="#D9D9D9"/>
</svg>
